<svg width="47" height="36" viewBox="0 0 47 36" fill="none" xmlns="http://www.w3.org/2000/svg">
<g clip-path="url(#clip0_15131_52)">
<path d="M0.154942 7.875C0.154942 5.732 0.995942 3.911 2.67794 2.411C4.36094 0.804 6.34294 0 8.62694 0C9.58794 0 10.6089 0.214 11.6909 0.643L11.5109 0.482L12.5919 0.964H12.7729C13.1329 1.179 13.5539 1.446 14.0339 1.768C14.0339 1.875 14.2149 2.089 14.5749 2.411C17.5789 5.089 18.8409 9.107 18.3609 14.464C17.8799 22.179 13.3129 29.143 4.66094 35.357C4.17994 35.786 3.63894 36 3.03894 36C2.07694 36 1.29594 35.625 0.694942 34.875C-0.386058 33.589 -0.206058 32.411 1.23594 31.339C8.32594 26.196 12.1719 20.625 12.7729 14.625C11.4509 15.375 10.0689 15.75 8.62694 15.75C6.34294 15.75 4.36094 15 2.67794 13.5C0.995942 11.893 0.154942 10.018 0.154942 7.875ZM28.0939 7.875C28.0939 5.732 28.9359 3.911 30.6179 2.411C32.2999 0.804 34.2829 0 36.5669 0C37.5279 0 38.5489 0.214 39.6309 0.643L39.4509 0.482C39.8109 0.589 40.1719 0.75 40.5319 0.964H40.7129C41.1929 1.179 41.6139 1.446 41.9739 1.768C41.9739 1.875 42.1549 2.089 42.5149 2.411C45.5189 5.089 46.7809 9.107 46.3009 14.464C45.8199 22.179 41.2529 29.143 32.6009 35.357C32.1199 35.786 31.5789 36 30.9789 36C30.0169 36 29.2959 35.625 28.8149 34.875C27.6139 33.589 27.7339 32.411 29.1759 31.339C36.2659 26.196 40.1119 20.625 40.7129 14.625C39.3909 15.375 38.0089 15.75 36.5669 15.75C34.2829 15.75 32.2999 15 30.6179 13.5C28.9359 11.893 28.0939 10.018 28.0939 7.875Z" fill="#AEAEAE"/>
</g>
<defs>
<clipPath id="clip0_15131_52">
<rect width="46.4" height="36" fill="white"/>
</clipPath>
</defs>
</svg>
